# xmcd
#
# Track frame offsets:
#	150
#	24160
#	43425
#	65897
#	83754
#	99354
#	120320
#	152101
#	170266
#	189224
#	222596
#	240168
#	259867
#	287268
#	307667
#	330110
#
# Disc length: 4797 seconds
#
# Revision: 0
# Processed by: cddbd v1.5.2PL0 Copyright (c) Steve Scherf et al.
# Submitted via: audiograbber 1.83.01
#
DISCID=c312bb10
DTITLE=Sonic Seducer - Cold Hands Seduction Vol.158 - 10-2014
DYEAR=2014
DGENRE=Gothic
TTITLE0=Project Pitchfork - Blood Diamond (See Him Running)
TTITLE1=Merciful Nuns - Karma Inn
TTITLE2=Dark Horses - Live On Hunger
TTITLE3=Xeno and Oaklander - Sheen
TTITLE4=Songs Of Lemuria - Voices Of Grace (Special EP Version)
TTITLE5=Metroland - Thalys (Düsseldorf Edit)
TTITLE6=Kontrast - John Maynard
TTITLE7=White Trash Wankers - The Maniac
TTITLE8=Zex Model - Tokyo Blitz
TTITLE9=Mundtot - Wir laufen (Tobi Kramer Remix) 
TTITLE10=Lovelorn Dolls - The Thrill (Single Edit)
TTITLE11=Bellanox Mystery - No Rest For The Wicked
TTITLE12=Frostbite - The Name Of Blasphemy (Single Edit)
TTITLE13=Eliwagar - Huldresagn
TTITLE14=2Loveor2Hate - Ruin
TTITLE15=Red Sun Revival - Mistakes
EXTD=
EXTT0=
EXTT1=
EXTT2=
EXTT3=
EXTT4=
EXTT5=
EXTT6=
EXTT7=
EXTT8=
EXTT9=
EXTT10=
EXTT11=
EXTT12=
EXTT13=
EXTT14=
EXTT15=
PLAYORDER=
